<mxfile host="65bd71144e">
    <diagram id="AjdH0zX41_i-Fe2IBkXN" name="Page-1">
        <mxGraphModel dx="288" dy="400" grid="1" gridSize="10" guides="1" tooltips="1" connect="1" arrows="1" fold="1" page="1" pageScale="1" pageWidth="850" pageHeight="1100" background="none" math="0" shadow="0">
            <root>
                <mxCell id="0"/>
                <mxCell id="1" parent="0"/>
                <mxCell id="2" value="EMPLOYEE&lt;br&gt;-firstName&lt;br&gt;-lastName&lt;br&gt;-D.O.B&lt;br&gt;-SSN&lt;br&gt;-TIMEOFF&lt;br&gt;-ADDRESS&lt;br&gt;-PTO REQ&lt;br&gt;-SCHEDULE" style="whiteSpace=wrap;html=1;aspect=fixed;" parent="1" vertex="1">
                    <mxGeometry x="250" y="10" width="150" height="150" as="geometry"/>
                </mxCell>
                <mxCell id="3" value="" style="endArrow=none;html=1;" parent="1" target="4" edge="1">
                    <mxGeometry width="50" height="50" relative="1" as="geometry">
                        <mxPoint x="80" y="200" as="sourcePoint"/>
                        <mxPoint x="80" y="160" as="targetPoint"/>
                    </mxGeometry>
                </mxCell>
                <mxCell id="4" value="TIMEOFF&lt;br&gt;-Vacation&lt;br&gt;-SICK&lt;br&gt;-Personal&lt;br&gt;-EMPLOYEE" style="whiteSpace=wrap;html=1;aspect=fixed;" parent="1" vertex="1">
                    <mxGeometry x="90" y="200" width="150" height="150" as="geometry"/>
                </mxCell>
                <mxCell id="5" value="" style="endArrow=none;html=1;entryX=0;entryY=1;entryDx=0;entryDy=0;exitX=0.5;exitY=0;exitDx=0;exitDy=0;" parent="1" source="4" target="2" edge="1">
                    <mxGeometry width="50" height="50" relative="1" as="geometry">
                        <mxPoint x="430" y="260" as="sourcePoint"/>
                        <mxPoint x="480" y="210" as="targetPoint"/>
                    </mxGeometry>
                </mxCell>
                <mxCell id="6" value="ADDRESS&lt;br&gt;-Number&lt;br&gt;-Street&lt;br&gt;-City&lt;br&gt;-Zipcode&lt;br&gt;-EMPLOYEE" style="whiteSpace=wrap;html=1;aspect=fixed;" parent="1" vertex="1">
                    <mxGeometry x="250" y="200" width="150" height="150" as="geometry"/>
                </mxCell>
                <mxCell id="7" value="" style="endArrow=none;html=1;entryX=0.5;entryY=1;entryDx=0;entryDy=0;exitX=0.5;exitY=0;exitDx=0;exitDy=0;" parent="1" source="6" target="2" edge="1">
                    <mxGeometry width="50" height="50" relative="1" as="geometry">
                        <mxPoint x="430" y="240" as="sourcePoint"/>
                        <mxPoint x="480" y="190" as="targetPoint"/>
                    </mxGeometry>
                </mxCell>
                <mxCell id="8" value="" style="endArrow=none;html=1;entryX=1;entryY=1;entryDx=0;entryDy=0;exitX=0.5;exitY=0;exitDx=0;exitDy=0;" parent="1" source="9" target="2" edge="1">
                    <mxGeometry width="50" height="50" relative="1" as="geometry">
                        <mxPoint x="430" y="200" as="sourcePoint"/>
                        <mxPoint x="480" y="150" as="targetPoint"/>
                    </mxGeometry>
                </mxCell>
                <mxCell id="9" value="PTO REQUEST&lt;br&gt;-Date&lt;br&gt;-Time&lt;br&gt;-Type of Time Used&lt;br&gt;-Amount of Type&lt;br&gt;-EMPLOYEE" style="whiteSpace=wrap;html=1;aspect=fixed;" parent="1" vertex="1">
                    <mxGeometry x="410" y="200" width="150" height="150" as="geometry"/>
                </mxCell>
                <mxCell id="10" value="EVENT&lt;br&gt;-Name&lt;br&gt;-Time&lt;br&gt;-Date&lt;br&gt;-Artist ?" style="whiteSpace=wrap;html=1;aspect=fixed;" parent="1" vertex="1">
                    <mxGeometry x="640" y="10" width="150" height="150" as="geometry"/>
                </mxCell>
                <mxCell id="16" value="MENU-ITEM&lt;br&gt;-Category&lt;br&gt;-Name&lt;br&gt;-Price&lt;br&gt;-Description&lt;br&gt;-Image ?" style="whiteSpace=wrap;html=1;aspect=fixed;" parent="1" vertex="1">
                    <mxGeometry x="250" y="370" width="150" height="150" as="geometry"/>
                </mxCell>
                <mxCell id="17" value="MAILING LIST&lt;br&gt;-Name&lt;br&gt;-Email" style="whiteSpace=wrap;html=1;aspect=fixed;" vertex="1" parent="1">
                    <mxGeometry x="90" y="370" width="150" height="150" as="geometry"/>
                </mxCell>
                <mxCell id="18" value="REVIEW&lt;br&gt;-Name&lt;br&gt;-Review&lt;br&gt;-Rating X/5" style="whiteSpace=wrap;html=1;aspect=fixed;" vertex="1" parent="1">
                    <mxGeometry x="410" y="370" width="150" height="150" as="geometry"/>
                </mxCell>
            </root>
        </mxGraphModel>
    </diagram>
</mxfile>